<?xml version="1.0" ?><svg viewBox="0 0 40 44" xmlns="http://www.w3.org/2000/svg"><defs><style>.cls-1{fill:#f7931e;}.cls-2{fill:none;stroke:#f7931e;stroke-miterlimit:10;}</style></defs><title/><g data-name="Layer 2" id="Layer_2"><g data-name="Layer 1" id="Layer_1-2"><path class="cls-1" d="M23,4.25V2h1a1,1,0,0,0,0-2H16a1,1,0,0,0,0,2h1V4.25a20,20,0,1,0,6,0ZM19,4V2h2V4Zm1,38A18,18,0,1,1,38,24,18,18,0,0,1,20,42Z"/><path class="cls-1" d="M20,8A16,16,0,1,0,36,24,16,16,0,0,0,20,8Zm0,30A14,14,0,1,1,34,24,14,14,0,0,1,20,38Z"/><circle class="cls-2" cx="20" cy="23" r="15"/><path class="cls-1" d="M27.29,16.29l-6,6a3,3,0,0,0-4.1,1.7H10a1,1,0,0,0,0,2h7.18a3,3,0,1,0,5.52-2.29l6-6a1,1,0,0,0-1.41-1.41ZM20,26a1,1,0,0,1,0-2,1,1,0,0,0,1,1A1,1,0,0,1,20,26Z"/></g></g></svg>